<?xml version="1.0" encoding="utf-8" standalone="no"?>
<!DOCTYPE svg PUBLIC "-//W3C//DTD SVG 1.1//EN"
  "http://www.w3.org/Graphics/SVG/1.1/DTD/svg11.dtd">
<svg xmlns:xlink="http://www.w3.org/1999/xlink" width="604.8pt" height="309.6pt" viewBox="0 0 604.8 309.6" xmlns="http://www.w3.org/2000/svg" version="1.1">
 <metadata>
  <rdf:RDF xmlns:dc="http://purl.org/dc/elements/1.1/" xmlns:cc="http://creativecommons.org/ns#" xmlns:rdf="http://www.w3.org/1999/02/22-rdf-syntax-ns#">
   <cc:Work>
    <dc:type rdf:resource="http://purl.org/dc/dcmitype/StillImage"/>
    <dc:format>image/svg+xml</dc:format>
    <dc:creator>
     <cc:Agent>
      <dc:title>Matplotlib v3.9.4, https://matplotlib.org/</dc:title>
     </cc:Agent>
    </dc:creator>
   </cc:Work>
  </rdf:RDF>
 </metadata>
 <defs>
  <style type="text/css">*{stroke-linejoin: round; stroke-linecap: butt}</style>
 </defs>
 <g id="figure_1">
  <g id="patch_1">
   <path d="M 0 309.6
L 604.8 309.6
L 604.8 0
L 0 0
z
" style="fill: #ffffff"/>
  </g>
  <g id="axes_1">
   <g id="patch_2">
    <path d="M 114.912 238.392
L 508.032 238.392
L 508.032 77.4
L 114.912 77.4
z
" style="fill: #ffffff"/>
   </g>
   <g id="matplotlib.axis_1">
    <g id="xtick_1">
     <g id="line2d_1">
      <path d="M 114.912 238.392
L 114.912 77.4
" clip-path="url(#pf203c1af53)" style="fill: none; stroke: #e6ecef; stroke-width: 0.8; stroke-linecap: square"/>
     </g>
     <g id="line2d_2"/>
     <g id="text_1">
      <!-- 0 -->
      <g style="fill: #576973" transform="translate(110.551219 257.835125) scale(0.14 -0.14)">
       <defs>
        <path id="MonaSans-Regular-30" d="M 1997 -58
Q 1235 -58 819 556
Q 403 1171 403 2317
Q 403 3475 822 4086
Q 1242 4698 1997 4698
Q 2758 4698 3171 4080
Q 3584 3462 3584 2317
Q 3584 1158 3165 550
Q 2746 -58 1997 -58
z
M 1997 461
Q 2490 461 2736 937
Q 2982 1414 2982 2317
Q 2982 3226 2736 3702
Q 2490 4179 1997 4179
Q 1498 4179 1254 3702
Q 1011 3226 1011 2317
Q 1011 1408 1254 934
Q 1498 461 1997 461
z
" transform="scale(0.015625)"/>
       </defs>
       <use xlink:href="#MonaSans-Regular-30"/>
      </g>
     </g>
    </g>
    <g id="xtick_2">
     <g id="line2d_3">
      <path d="M 227.232 238.392
L 227.232 77.4
" clip-path="url(#pf203c1af53)" style="fill: none; stroke: #e6ecef; stroke-width: 0.8; stroke-linecap: square"/>
     </g>
     <g id="line2d_4"/>
     <g id="text_2">
      <!-- 200k -->
      <g style="fill: #576973" transform="translate(211.048875 257.835125) scale(0.14 -0.14)">
       <defs>
        <path id="MonaSans-Regular-32" d="M 237 160
Q 237 755 579 1206
Q 922 1658 1606 2163
Q 2106 2534 2317 2796
Q 2528 3059 2528 3373
Q 2528 3757 2310 3977
Q 2093 4198 1709 4198
Q 1325 4198 1081 3936
Q 838 3674 813 3226
L 224 3219
Q 250 3910 662 4313
Q 1075 4717 1734 4717
Q 2374 4717 2752 4355
Q 3130 3994 3130 3398
Q 3130 2938 2870 2566
Q 2611 2195 2016 1760
Q 1670 1504 1462 1328
Q 1254 1152 1100 944
Q 947 736 902 506
L 3226 512
L 3226 0
L 237 0
L 237 160
z
" transform="scale(0.015625)"/>
        <path id="MonaSans-Regular-6b" d="M 1818 1350
L 1600 1664
L 992 1056
L 992 0
L 416 0
L 416 4774
L 992 4774
L 992 1722
L 1280 2035
L 2579 3366
L 3270 3366
L 2016 2067
L 3379 0
L 2714 0
L 1818 1350
z
" transform="scale(0.015625)"/>
       </defs>
       <use xlink:href="#MonaSans-Regular-32"/>
       <use xlink:href="#MonaSans-Regular-30" x="53.299988"/>
       <use xlink:href="#MonaSans-Regular-30" x="115.599976"/>
       <use xlink:href="#MonaSans-Regular-6b" x="177.899963"/>
      </g>
     </g>
    </g>
    <g id="xtick_3">
     <g id="line2d_5">
      <path d="M 339.552 238.392
L 339.552 77.4
" clip-path="url(#pf203c1af53)" style="fill: none; stroke: #e6ecef; stroke-width: 0.8; stroke-linecap: square"/>
     </g>
     <g id="line2d_6"/>
     <g id="text_3">
      <!-- 400k -->
      <g style="fill: #576973" transform="translate(322.878875 257.835125) scale(0.14 -0.14)">
       <defs>
        <path id="MonaSans-Regular-34" d="M 2330 1120
L 154 1120
L 154 1581
L 2234 4672
L 2912 4672
L 2912 1606
L 3731 1606
L 3731 1120
L 2912 1120
L 2912 0
L 2330 0
L 2330 1120
z
M 2330 1606
L 2330 4006
L 736 1606
L 2330 1606
z
" transform="scale(0.015625)"/>
       </defs>
       <use xlink:href="#MonaSans-Regular-34"/>
       <use xlink:href="#MonaSans-Regular-30" x="60.299988"/>
       <use xlink:href="#MonaSans-Regular-30" x="122.599976"/>
       <use xlink:href="#MonaSans-Regular-6b" x="184.899963"/>
      </g>
     </g>
    </g>
    <g id="xtick_4">
     <g id="line2d_7">
      <path d="M 451.872 238.392
L 451.872 77.4
" clip-path="url(#pf203c1af53)" style="fill: none; stroke: #e6ecef; stroke-width: 0.8; stroke-linecap: square"/>
     </g>
     <g id="line2d_8"/>
     <g id="text_4">
      <!-- 600k -->
      <g style="fill: #576973" transform="translate(435.065437 257.835125) scale(0.14 -0.14)">
       <defs>
        <path id="MonaSans-Regular-36" d="M 2074 -58
Q 1261 -58 845 486
Q 429 1030 429 2074
Q 429 3424 857 4073
Q 1286 4723 2150 4723
Q 2790 4723 3187 4384
Q 3584 4045 3642 3469
L 3034 3469
Q 2982 3827 2748 4019
Q 2515 4211 2150 4211
Q 1536 4211 1280 3708
Q 1024 3206 1011 2195
L 1037 2195
Q 1165 2560 1481 2768
Q 1798 2976 2246 2976
Q 2669 2976 2992 2793
Q 3315 2611 3494 2275
Q 3674 1939 3674 1498
Q 3674 1030 3472 678
Q 3270 326 2905 134
Q 2541 -58 2074 -58
z
M 2099 454
Q 2528 454 2793 739
Q 3059 1024 3059 1491
Q 3059 1965 2800 2240
Q 2541 2515 2112 2515
Q 1664 2515 1389 2220
Q 1114 1926 1114 1485
Q 1114 1011 1382 732
Q 1651 454 2099 454
z
" transform="scale(0.015625)"/>
       </defs>
       <use xlink:href="#MonaSans-Regular-36"/>
       <use xlink:href="#MonaSans-Regular-30" x="62.199997"/>
       <use xlink:href="#MonaSans-Regular-30" x="124.499985"/>
       <use xlink:href="#MonaSans-Regular-6b" x="186.799973"/>
      </g>
     </g>
    </g>
   </g>
   <g id="matplotlib.axis_2">
    <g id="ytick_1">
     <g id="line2d_9"/>
     <g id="text_5">
      <!-- wrk -->
      <g style="fill: #576973" transform="translate(80.377 107.7035) scale(0.16 -0.16)">
       <defs>
        <path id="MonaSans-Regular-77" d="M 32 3366
L 614 3366
L 1082 1491
L 1306 557
L 1338 557
L 1542 1491
L 2003 3366
L 2618 3366
L 3098 1491
L 3309 550
L 3334 550
L 3552 1491
L 4019 3366
L 4576 3366
L 3693 0
L 2989 0
L 2534 1741
L 2304 2701
L 2285 2701
L 2067 1741
L 1638 0
L 915 0
L 32 3366
z
" transform="scale(0.015625)"/>
        <path id="MonaSans-Regular-72" d="M 403 3366
L 915 3366
L 947 2746
L 966 2746
Q 1075 3066 1337 3238
Q 1600 3411 1946 3411
L 2099 3405
L 2099 2854
Q 2054 2861 1939 2861
Q 1504 2861 1254 2630
Q 1005 2400 973 1971
L 973 0
L 403 0
L 403 3366
z
" transform="scale(0.015625)"/>
       </defs>
       <use xlink:href="#MonaSans-Regular-77"/>
       <use xlink:href="#MonaSans-Regular-72" x="71.999985"/>
       <use xlink:href="#MonaSans-Regular-6b" x="106.299973"/>
      </g>
     </g>
    </g>
    <g id="ytick_2">
     <g id="line2d_10"/>
     <g id="text_6">
      <!-- SwarmGo -->
      <g style="fill: #00718a" transform="translate(32.007 145.1435) scale(0.16 -0.16)">
       <defs>
        <path id="MonaSans-SemiBold-53" d="M 2042 -58
Q 1158 -58 681 342
Q 205 742 179 1434
L 1037 1434
Q 1101 595 2074 595
Q 2502 595 2745 768
Q 2989 941 2989 1267
Q 2989 1491 2886 1628
Q 2784 1766 2547 1852
Q 2310 1939 1869 2016
Q 1056 2157 675 2461
Q 294 2765 294 3347
Q 294 3763 505 4073
Q 717 4384 1107 4553
Q 1498 4723 2022 4723
Q 2790 4723 3241 4361
Q 3693 4000 3725 3379
L 2874 3379
Q 2835 3731 2604 3900
Q 2374 4070 1990 4070
Q 1600 4070 1382 3910
Q 1165 3750 1165 3456
Q 1165 3245 1264 3120
Q 1363 2995 1600 2915
Q 1837 2835 2310 2752
Q 2816 2669 3145 2521
Q 3475 2374 3667 2089
Q 3859 1805 3859 1331
Q 3859 685 3382 313
Q 2906 -58 2042 -58
z
" transform="scale(0.015625)"/>
        <path id="MonaSans-SemiBold-77" d="M 26 3411
L 851 3411
L 1248 1670
L 1440 794
L 1472 794
L 1645 1670
L 2035 3411
L 2867 3411
L 3264 1670
L 3437 781
L 3475 781
L 3654 1670
L 4058 3411
L 4838 3411
L 3981 0
L 2995 0
L 2630 1530
L 2432 2451
L 2406 2451
L 2214 1530
L 1862 0
L 877 0
L 26 3411
z
" transform="scale(0.015625)"/>
        <path id="MonaSans-SemiBold-61" d="M 1574 -58
Q 1165 -58 861 153
Q 557 365 393 761
Q 230 1158 230 1702
Q 230 2528 592 2998
Q 954 3469 1574 3469
Q 1958 3469 2243 3280
Q 2528 3091 2643 2765
L 2669 2765
L 2701 3405
L 3456 3405
L 3456 0
L 2701 0
L 2669 646
L 2643 646
Q 2528 320 2243 131
Q 1958 -58 1574 -58
z
M 1850 602
Q 2221 602 2441 880
Q 2662 1158 2662 1568
L 2662 1837
Q 2662 2246 2444 2528
Q 2227 2810 1862 2810
Q 1472 2810 1257 2522
Q 1043 2234 1043 1702
Q 1043 1184 1254 893
Q 1466 602 1850 602
z
" transform="scale(0.015625)"/>
        <path id="MonaSans-SemiBold-72" d="M 358 3405
L 1075 3405
L 1107 2810
L 1139 2810
Q 1248 3123 1494 3286
Q 1741 3450 2080 3450
Q 2176 3450 2221 3443
L 2221 2682
Q 2176 2688 2067 2688
Q 1190 2688 1152 1856
L 1152 0
L 358 0
L 358 3405
z
" transform="scale(0.015625)"/>
        <path id="MonaSans-SemiBold-6d" d="M 365 3405
L 1133 3405
L 1158 2771
L 1190 2771
Q 1318 3104 1606 3286
Q 1894 3469 2240 3469
Q 3027 3469 3264 2726
L 3296 2726
Q 3430 3085 3728 3277
Q 4026 3469 4403 3469
Q 4909 3469 5213 3129
Q 5517 2790 5517 2074
L 5517 0
L 4723 0
L 4723 1901
Q 4723 2362 4572 2582
Q 4422 2803 4096 2803
Q 3757 2803 3549 2550
Q 3341 2298 3341 1914
L 3341 0
L 2541 0
L 2541 1901
Q 2541 2362 2390 2582
Q 2240 2803 1914 2803
Q 1574 2803 1366 2550
Q 1158 2298 1158 1914
L 1158 0
L 365 0
L 365 3405
z
" transform="scale(0.015625)"/>
        <path id="MonaSans-SemiBold-47" d="M 2509 -58
Q 1830 -58 1328 240
Q 826 538 557 1078
Q 288 1619 288 2336
Q 288 3059 566 3600
Q 845 4141 1357 4432
Q 1869 4723 2541 4723
Q 3098 4723 3536 4534
Q 3974 4346 4243 3997
Q 4512 3648 4582 3187
L 3712 3187
Q 3629 3571 3315 3782
Q 3002 3994 2541 3994
Q 1894 3994 1523 3555
Q 1152 3117 1152 2336
Q 1152 1542 1520 1097
Q 1888 653 2528 653
Q 3091 653 3433 953
Q 3776 1254 3827 1811
L 2541 1811
L 2541 2445
L 4678 2445
L 4678 2067
Q 4678 1421 4409 941
Q 4141 461 3651 201
Q 3162 -58 2509 -58
z
" transform="scale(0.015625)"/>
        <path id="MonaSans-SemiBold-6f" d="M 1869 -58
Q 1376 -58 1001 153
Q 627 365 419 765
Q 211 1165 211 1702
Q 211 2227 409 2627
Q 608 3027 982 3248
Q 1357 3469 1869 3469
Q 2362 3469 2736 3254
Q 3110 3040 3318 2640
Q 3526 2240 3526 1702
Q 3526 1178 3328 781
Q 3130 384 2755 163
Q 2381 -58 1869 -58
z
M 1869 602
Q 2259 602 2486 883
Q 2714 1165 2714 1702
Q 2714 2240 2490 2525
Q 2266 2810 1869 2810
Q 1472 2810 1248 2525
Q 1024 2240 1024 1702
Q 1024 1171 1248 886
Q 1472 602 1869 602
z
" transform="scale(0.015625)"/>
       </defs>
       <use xlink:href="#MonaSans-SemiBold-53"/>
       <use xlink:href="#MonaSans-SemiBold-77" x="63.299988"/>
       <use xlink:href="#MonaSans-SemiBold-61" x="139.299973"/>
       <use xlink:href="#MonaSans-SemiBold-72" x="198.999969"/>
       <use xlink:href="#MonaSans-SemiBold-6d" x="234.999954"/>
       <use xlink:href="#MonaSans-SemiBold-47" x="326.499939"/>
       <use xlink:href="#MonaSans-SemiBold-6f" x="403.499924"/>
      </g>
     </g>
    </g>
    <g id="ytick_3">
     <g id="line2d_11"/>
     <g id="text_7">
      <!-- oha -->
      <g style="fill: #576973" transform="translate(78.1345 182.5835) scale(0.16 -0.16)">
       <defs>
        <path id="MonaSans-Regular-6f" d="M 1862 -58
Q 1389 -58 1024 156
Q 659 371 460 761
Q 262 1152 262 1677
Q 262 2195 457 2588
Q 653 2982 1014 3203
Q 1376 3424 1862 3424
Q 2336 3424 2694 3209
Q 3053 2995 3254 2601
Q 3456 2208 3456 1683
Q 3456 1165 3261 771
Q 3066 378 2704 160
Q 2342 -58 1862 -58
z
M 1856 429
Q 2323 429 2598 758
Q 2874 1088 2874 1683
Q 2874 2272 2602 2608
Q 2330 2944 1862 2944
Q 1389 2944 1117 2611
Q 845 2278 845 1677
Q 845 1088 1117 758
Q 1389 429 1856 429
z
" transform="scale(0.015625)"/>
        <path id="MonaSans-Regular-68" d="M 416 4774
L 979 4774
L 979 2675
L 1005 2675
Q 1146 3027 1453 3225
Q 1760 3424 2131 3424
Q 2669 3424 2976 3078
Q 3283 2733 3283 2003
L 3283 0
L 2720 0
L 2720 1875
Q 2720 2419 2528 2678
Q 2336 2938 1933 2938
Q 1504 2938 1241 2627
Q 979 2317 979 1830
L 979 0
L 416 0
L 416 4774
z
" transform="scale(0.015625)"/>
        <path id="MonaSans-Regular-61" d="M 1619 -58
Q 1216 -58 912 153
Q 608 365 441 758
Q 275 1152 275 1683
Q 275 2221 441 2617
Q 608 3014 912 3222
Q 1216 3430 1619 3430
Q 2029 3430 2329 3225
Q 2630 3021 2752 2675
L 2771 2675
L 2790 3366
L 3328 3366
L 3328 0
L 2790 0
L 2771 704
L 2752 704
Q 2624 346 2326 144
Q 2029 -58 1619 -58
z
M 1805 429
Q 2093 429 2313 579
Q 2534 730 2649 979
Q 2765 1229 2765 1523
L 2765 1843
Q 2765 2138 2649 2390
Q 2534 2643 2316 2796
Q 2099 2950 1811 2950
Q 1363 2950 1110 2617
Q 858 2285 858 1683
Q 858 1094 1110 761
Q 1363 429 1805 429
z
" transform="scale(0.015625)"/>
       </defs>
       <use xlink:href="#MonaSans-Regular-6f"/>
       <use xlink:href="#MonaSans-Regular-68" x="57.999985"/>
       <use xlink:href="#MonaSans-Regular-61" x="115.199982"/>
      </g>
     </g>
    </g>
    <g id="ytick_4">
     <g id="line2d_12"/>
     <g id="text_8">
      <!-- k6 -->
      <g style="fill: #576973" transform="translate(87.432 220.0235) scale(0.16 -0.16)">
       <use xlink:href="#MonaSans-Regular-6b"/>
       <use xlink:href="#MonaSans-Regular-36" x="53.299988"/>
      </g>
     </g>
    </g>
   </g>
   <g id="patch_3">
    <path d="M 114.912 92.7504
L 462.468642 92.7504
L 462.468642 110.7216
L 114.912 110.7216
z
" clip-path="url(#pf203c1af53)" style="fill: #7c8d99"/>
   </g>
   <g id="text_9">
    <!-- 619k -->
    <g style="fill: #243d49" transform="translate(539.965425 107.465688) scale(0.2 -0.2)">
     <defs>
      <path id="MonaSans-Regular-31" d="M 1203 3462
L 109 3462
L 109 3904
L 352 3904
Q 1165 3904 1235 4672
L 1805 4672
L 1805 0
L 1203 0
L 1203 3462
z
" transform="scale(0.015625)"/>
      <path id="MonaSans-Regular-39" d="M 1907 4723
Q 2720 4723 3136 4179
Q 3552 3635 3552 2592
Q 3552 1242 3123 592
Q 2694 -58 1830 -58
Q 1190 -58 793 281
Q 397 621 339 1197
L 947 1197
Q 998 838 1232 646
Q 1466 454 1830 454
Q 2445 454 2701 956
Q 2957 1459 2970 2470
L 2944 2470
Q 2816 2106 2499 1898
Q 2182 1690 1734 1690
Q 1312 1690 989 1872
Q 666 2054 486 2390
Q 307 2726 307 3168
Q 307 3635 508 3987
Q 710 4339 1075 4531
Q 1440 4723 1907 4723
z
M 1882 4211
Q 1453 4211 1187 3926
Q 922 3642 922 3174
Q 922 2701 1181 2425
Q 1440 2150 1869 2150
Q 2317 2150 2592 2444
Q 2867 2739 2867 3181
Q 2867 3654 2598 3932
Q 2330 4211 1882 4211
z
" transform="scale(0.015625)"/>
     </defs>
     <use xlink:href="#MonaSans-Regular-36"/>
     <use xlink:href="#MonaSans-Regular-31" x="62.199997"/>
     <use xlink:href="#MonaSans-Regular-39" x="98.299988"/>
     <use xlink:href="#MonaSans-Regular-6b" x="160.499985"/>
    </g>
   </g>
   <g id="patch_4">
    <path d="M 114.912 130.1904
L 438.931808 130.1904
L 438.931808 148.1616
L 114.912 148.1616
z
" clip-path="url(#pf203c1af53)" style="fill: #008caa"/>
   </g>
   <g id="text_10">
    <!-- 577k -->
    <g style="fill: #00718a" transform="translate(538.565425 144.926) scale(0.2 -0.2)">
     <defs>
      <path id="MonaSans-SemiBold-35" d="M 1818 -58
Q 1114 -58 678 323
Q 243 704 198 1350
L 1050 1350
Q 1082 1030 1293 838
Q 1504 646 1837 646
Q 2221 646 2441 892
Q 2662 1139 2662 1530
Q 2656 1946 2438 2179
Q 2221 2413 1856 2413
Q 1606 2413 1414 2291
Q 1222 2170 1146 1965
L 326 1965
L 525 4666
L 3379 4666
L 3379 3949
L 1248 3949
L 1133 2688
L 1165 2682
Q 1286 2867 1532 2982
Q 1779 3098 2067 3098
Q 2502 3098 2825 2909
Q 3149 2720 3328 2374
Q 3507 2029 3507 1562
Q 3507 1075 3296 710
Q 3085 346 2701 144
Q 2317 -58 1818 -58
z
" transform="scale(0.015625)"/>
      <path id="MonaSans-SemiBold-37" d="M 1114 0
Q 1114 1107 1450 2083
Q 1786 3059 2445 3942
L 794 3936
L 794 3200
L 154 3200
L 154 4666
L 3354 4666
L 3354 4058
Q 2675 3046 2342 2067
Q 2010 1088 2010 0
L 1114 0
z
" transform="scale(0.015625)"/>
      <path id="MonaSans-SemiBold-6b" d="M 1888 1197
L 1677 1523
L 1178 1018
L 1178 0
L 378 0
L 378 4774
L 1178 4774
L 1178 1926
L 1459 2246
L 2547 3405
L 3501 3405
L 2246 2080
L 3578 0
L 2650 0
L 1888 1197
z
" transform="scale(0.015625)"/>
     </defs>
     <use xlink:href="#MonaSans-SemiBold-35"/>
     <use xlink:href="#MonaSans-SemiBold-37" x="57.699997"/>
     <use xlink:href="#MonaSans-SemiBold-37" x="110.999985"/>
     <use xlink:href="#MonaSans-SemiBold-6b" x="164.299973"/>
    </g>
   </g>
   <g id="patch_5">
    <path d="M 114.912 167.6304
L 374.68592 167.6304
L 374.68592 185.6016
L 114.912 185.6016
z
" clip-path="url(#pf203c1af53)" style="fill: #7c8d99"/>
   </g>
   <g id="text_11">
    <!-- 463k -->
    <g style="fill: #243d49" transform="translate(536.384175 182.345687) scale(0.2 -0.2)">
     <defs>
      <path id="MonaSans-Regular-33" d="M 1741 -58
Q 1056 -58 633 320
Q 211 698 186 1338
L 768 1338
Q 794 922 1056 688
Q 1318 454 1741 454
Q 2182 454 2438 697
Q 2694 941 2694 1350
Q 2694 1773 2457 1993
Q 2221 2214 1798 2214
L 1344 2214
L 1344 2662
L 1722 2662
Q 2125 2662 2358 2880
Q 2592 3098 2592 3450
Q 2592 3808 2368 4009
Q 2144 4211 1773 4211
Q 1395 4211 1155 3980
Q 915 3750 883 3373
L 294 3373
Q 326 3987 729 4355
Q 1133 4723 1786 4723
Q 2432 4723 2809 4390
Q 3187 4058 3187 3501
Q 3187 3136 2992 2857
Q 2797 2579 2470 2470
L 2470 2451
Q 2874 2355 3091 2054
Q 3309 1754 3309 1306
Q 3309 678 2883 310
Q 2458 -58 1741 -58
z
" transform="scale(0.015625)"/>
     </defs>
     <use xlink:href="#MonaSans-Regular-34"/>
     <use xlink:href="#MonaSans-Regular-36" x="60.299988"/>
     <use xlink:href="#MonaSans-Regular-33" x="122.499985"/>
     <use xlink:href="#MonaSans-Regular-6b" x="178.399979"/>
    </g>
   </g>
   <g id="patch_6">
    <path d="M 114.912 205.0704
L 184.06091 205.0704
L 184.06091 223.0416
L 114.912 223.0416
z
" clip-path="url(#pf203c1af53)" style="fill: #7c8d99"/>
   </g>
   <g id="text_12">
    <!-- 123k -->
    <g style="fill: #243d49" transform="translate(543.00605 219.785687) scale(0.2 -0.2)">
     <use xlink:href="#MonaSans-Regular-31"/>
     <use xlink:href="#MonaSans-Regular-32" x="36.099991"/>
     <use xlink:href="#MonaSans-Regular-33" x="89.399979"/>
     <use xlink:href="#MonaSans-Regular-6b" x="145.299973"/>
    </g>
   </g>
   <g id="LineCollection_1">
    <path d="M 447.186105 101.736
L 488.635279 101.736
" clip-path="url(#pf203c1af53)" style="fill: none; stroke: #243d49; stroke-width: 1.5"/>
   </g>
   <g id="LineCollection_2">
    <path d="M 447.186105 97.992
L 447.186105 105.48
" clip-path="url(#pf203c1af53)" style="fill: none; stroke: #243d49; stroke-width: 1.5"/>
    <path d="M 488.635279 97.992
L 488.635279 105.48
" clip-path="url(#pf203c1af53)" style="fill: none; stroke: #243d49; stroke-width: 1.5"/>
   </g>
   <g id="LineCollection_3">
    <path d="M 407.703814 139.176
L 459.602992 139.176
" clip-path="url(#pf203c1af53)" style="fill: none; stroke: #243d49; stroke-width: 1.5"/>
   </g>
   <g id="LineCollection_4">
    <path d="M 407.703814 135.432
L 407.703814 142.92
" clip-path="url(#pf203c1af53)" style="fill: none; stroke: #243d49; stroke-width: 1.5"/>
    <path d="M 459.602992 135.432
L 459.602992 142.92
" clip-path="url(#pf203c1af53)" style="fill: none; stroke: #243d49; stroke-width: 1.5"/>
   </g>
   <g id="LineCollection_5">
    <path d="M 367.841644 176.616
L 400.546288 176.616
" clip-path="url(#pf203c1af53)" style="fill: none; stroke: #243d49; stroke-width: 1.5"/>
   </g>
   <g id="LineCollection_6">
    <path d="M 367.841644 172.872
L 367.841644 180.36
" clip-path="url(#pf203c1af53)" style="fill: none; stroke: #243d49; stroke-width: 1.5"/>
    <path d="M 400.546288 172.872
L 400.546288 180.36
" clip-path="url(#pf203c1af53)" style="fill: none; stroke: #243d49; stroke-width: 1.5"/>
   </g>
   <g id="LineCollection_7">
    <path d="M 181.975774 214.056
L 197.647615 214.056
" clip-path="url(#pf203c1af53)" style="fill: none; stroke: #243d49; stroke-width: 1.5"/>
   </g>
   <g id="LineCollection_8">
    <path d="M 181.975774 210.312
L 181.975774 217.8
" clip-path="url(#pf203c1af53)" style="fill: none; stroke: #243d49; stroke-width: 1.5"/>
    <path d="M 197.647615 210.312
L 197.647615 217.8
" clip-path="url(#pf203c1af53)" style="fill: none; stroke: #243d49; stroke-width: 1.5"/>
   </g>
  </g>
  <g id="text_13">
   <!-- HTTP POST throughput -->
   <g style="fill: #243d49" transform="translate(24.192 27.864) scale(0.2 -0.2)">
    <defs>
     <path id="MonaSans-SemiBold-48" d="M 422 4666
L 1267 4666
L 1267 2758
L 3565 2758
L 3565 4666
L 4410 4666
L 4410 0
L 3565 0
L 3565 2029
L 1267 2029
L 1267 0
L 422 0
L 422 4666
z
" transform="scale(0.015625)"/>
     <path id="MonaSans-SemiBold-54" d="M 1542 3930
L 83 3930
L 83 4666
L 3853 4666
L 3853 3930
L 2381 3930
L 2381 0
L 1542 0
L 1542 3930
z
" transform="scale(0.015625)"/>
     <path id="MonaSans-SemiBold-50" d="M 410 4666
L 2406 4666
Q 3194 4666 3622 4272
Q 4051 3878 4051 3162
Q 4051 2458 3612 2061
Q 3174 1664 2406 1664
L 1254 1664
L 1254 0
L 410 0
L 410 4666
z
M 2291 2349
Q 2720 2349 2953 2560
Q 3187 2771 3187 3149
Q 3187 3526 2953 3734
Q 2720 3942 2291 3942
L 1254 3942
L 1254 2349
L 2291 2349
z
" transform="scale(0.015625)"/>
     <path id="MonaSans-SemiBold-20" transform="scale(0.015625)"/>
     <path id="MonaSans-SemiBold-4f" d="M 2515 -58
Q 1843 -58 1340 230
Q 838 518 566 1059
Q 294 1600 294 2336
Q 294 3072 566 3609
Q 838 4147 1340 4435
Q 1843 4723 2515 4723
Q 3194 4723 3699 4435
Q 4205 4147 4477 3609
Q 4749 3072 4749 2336
Q 4749 1594 4477 1056
Q 4205 518 3699 230
Q 3194 -58 2515 -58
z
M 2515 678
Q 3155 678 3516 1113
Q 3878 1549 3878 2336
Q 3878 3117 3516 3552
Q 3155 3987 2515 3987
Q 1875 3987 1516 3552
Q 1158 3117 1158 2336
Q 1158 1549 1516 1113
Q 1875 678 2515 678
z
" transform="scale(0.015625)"/>
     <path id="MonaSans-SemiBold-74" d="M 1491 0
Q 1082 0 883 198
Q 685 397 685 819
L 685 2758
L 77 2758
L 77 3405
L 685 3405
L 685 4352
L 1478 4448
L 1478 3405
L 2182 3405
L 2182 2758
L 1478 2758
L 1478 966
Q 1478 800 1555 729
Q 1632 659 1786 659
L 2189 659
L 2189 0
L 1491 0
z
" transform="scale(0.015625)"/>
     <path id="MonaSans-SemiBold-68" d="M 371 4774
L 1171 4774
L 1165 2746
L 1203 2746
Q 1338 3085 1626 3277
Q 1914 3469 2272 3469
Q 2810 3469 3120 3120
Q 3430 2771 3430 2048
L 3430 0
L 2637 0
L 2637 1862
Q 2637 2342 2473 2572
Q 2310 2803 1965 2803
Q 1606 2803 1388 2537
Q 1171 2272 1171 1869
L 1171 0
L 371 0
L 371 4774
z
" transform="scale(0.015625)"/>
     <path id="MonaSans-SemiBold-75" d="M 1504 -58
Q 941 -58 640 288
Q 339 634 339 1286
L 339 3405
L 1139 3405
L 1139 1485
Q 1139 1043 1299 819
Q 1459 595 1811 595
Q 2157 595 2377 860
Q 2598 1126 2598 1542
L 2598 3405
L 3392 3405
L 3392 0
L 2630 0
L 2605 678
L 2566 678
Q 2438 333 2156 137
Q 1875 -58 1504 -58
z
" transform="scale(0.015625)"/>
     <path id="MonaSans-SemiBold-67" d="M 1856 -1197
Q 1139 -1197 723 -931
Q 307 -666 250 -173
L 1088 -173
Q 1190 -602 1875 -602
Q 2278 -602 2457 -416
Q 2637 -230 2637 166
L 2643 742
L 2611 742
Q 2496 435 2208 259
Q 1920 83 1536 83
Q 1133 83 832 284
Q 531 486 364 867
Q 198 1248 198 1773
Q 198 2573 560 3021
Q 922 3469 1536 3469
Q 1926 3469 2211 3293
Q 2496 3117 2618 2803
L 2650 2803
L 2669 3405
L 3430 3405
L 3430 282
Q 3430 -506 3030 -851
Q 2630 -1197 1856 -1197
z
M 1811 736
Q 2182 736 2409 1005
Q 2637 1274 2637 1658
L 2637 1901
Q 2637 2285 2413 2553
Q 2189 2822 1818 2822
Q 1440 2822 1225 2550
Q 1011 2278 1011 1773
Q 1011 1280 1222 1008
Q 1434 736 1811 736
z
" transform="scale(0.015625)"/>
     <path id="MonaSans-SemiBold-70" d="M 371 3405
L 1133 3405
L 1158 2765
L 1197 2765
Q 1312 3085 1597 3277
Q 1882 3469 2259 3469
Q 2880 3469 3241 2998
Q 3603 2528 3603 1702
Q 3603 877 3241 406
Q 2880 -64 2259 -64
Q 1882 -64 1597 125
Q 1312 314 1197 621
L 1165 621
L 1171 -1094
L 371 -1094
L 371 3405
z
M 1958 602
Q 2355 602 2572 893
Q 2790 1184 2790 1702
Q 2790 2221 2579 2512
Q 2368 2803 1978 2803
Q 1606 2803 1388 2534
Q 1171 2266 1171 1850
L 1171 1549
Q 1171 1133 1382 867
Q 1594 602 1958 602
z
" transform="scale(0.015625)"/>
    </defs>
    <use xlink:href="#MonaSans-SemiBold-48"/>
    <use xlink:href="#MonaSans-SemiBold-54" x="75.499985"/>
    <use xlink:href="#MonaSans-SemiBold-54" x="136.999969"/>
    <use xlink:href="#MonaSans-SemiBold-50" x="198.499954"/>
    <use xlink:href="#MonaSans-SemiBold-20" x="263.899948"/>
    <use xlink:href="#MonaSans-SemiBold-50" x="286.099945"/>
    <use xlink:href="#MonaSans-SemiBold-4f" x="351.499939"/>
    <use xlink:href="#MonaSans-SemiBold-53" x="430.199921"/>
    <use xlink:href="#MonaSans-SemiBold-54" x="493.499908"/>
    <use xlink:href="#MonaSans-SemiBold-20" x="554.999893"/>
    <use xlink:href="#MonaSans-SemiBold-74" x="577.19989"/>
    <use xlink:href="#MonaSans-SemiBold-68" x="613.699875"/>
    <use xlink:href="#MonaSans-SemiBold-72" x="672.599869"/>
    <use xlink:href="#MonaSans-SemiBold-6f" x="708.599854"/>
    <use xlink:href="#MonaSans-SemiBold-75" x="766.999847"/>
    <use xlink:href="#MonaSans-SemiBold-67" x="825.699844"/>
    <use xlink:href="#MonaSans-SemiBold-68" x="884.899841"/>
    <use xlink:href="#MonaSans-SemiBold-70" x="943.799835"/>
    <use xlink:href="#MonaSans-SemiBold-75" x="1003.699829"/>
    <use xlink:href="#MonaSans-SemiBold-74" x="1062.399826"/>
   </g>
  </g>
  <g id="text_14">
   <!-- Six 60-second runs per tool · no rate cap -->
   <g style="fill: #576973" transform="translate(24.192 55.728) scale(0.14 -0.14)">
    <defs>
     <path id="MonaSans-Regular-53" d="M 2022 -58
Q 1171 -58 716 332
Q 262 723 230 1395
L 845 1395
Q 877 928 1171 675
Q 1466 422 2042 422
Q 2554 422 2845 633
Q 3136 845 3136 1229
Q 3136 1504 3017 1670
Q 2899 1837 2640 1939
Q 2381 2042 1907 2131
Q 1101 2278 726 2563
Q 352 2848 352 3418
Q 352 3808 550 4102
Q 749 4397 1120 4557
Q 1491 4717 1984 4717
Q 2720 4717 3145 4371
Q 3571 4026 3616 3430
L 3008 3430
Q 2963 3827 2688 4035
Q 2413 4243 1958 4243
Q 1498 4243 1235 4041
Q 973 3840 973 3494
Q 973 3238 1088 3091
Q 1203 2944 1459 2851
Q 1715 2758 2208 2669
Q 2720 2573 3049 2432
Q 3379 2291 3568 2012
Q 3757 1734 3757 1274
Q 3757 659 3296 300
Q 2835 -58 2022 -58
z
" transform="scale(0.015625)"/>
     <path id="MonaSans-Regular-69" d="M 410 3366
L 979 3366
L 979 0
L 410 0
L 410 3366
z
M 696 3936
Q 530 3936 424 4038
Q 318 4141 318 4301
Q 318 4461 424 4563
Q 530 4666 696 4666
Q 862 4666 968 4563
Q 1074 4461 1074 4301
Q 1074 4141 968 4038
Q 862 3936 696 3936
z
" transform="scale(0.015625)"/>
     <path id="MonaSans-Regular-78" d="M 1357 1747
L 179 3366
L 851 3366
L 1587 2330
L 1734 2112
L 1760 2112
L 1914 2330
L 2637 3366
L 3277 3366
L 2118 1766
L 3405 0
L 2733 0
L 1907 1152
L 1728 1408
L 1709 1408
L 1530 1152
L 672 0
L 51 0
L 1357 1747
z
" transform="scale(0.015625)"/>
     <path id="MonaSans-Regular-20" transform="scale(0.015625)"/>
     <path id="MonaSans-Regular-2d" d="M 198 1933
L 2208 1933
L 2208 1446
L 198 1446
L 198 1933
z
" transform="scale(0.015625)"/>
     <path id="MonaSans-Regular-73" d="M 1594 -64
Q 966 -64 598 214
Q 230 493 198 992
L 762 992
Q 800 672 1021 515
Q 1242 358 1606 358
Q 1971 358 2166 499
Q 2362 640 2362 902
Q 2362 1178 2179 1296
Q 1997 1414 1530 1478
Q 877 1574 589 1779
Q 301 1984 301 2432
Q 301 2886 649 3158
Q 998 3430 1574 3430
Q 2138 3430 2470 3164
Q 2803 2899 2842 2432
L 2278 2432
Q 2214 3008 1562 3008
Q 1235 3008 1046 2867
Q 858 2726 858 2490
Q 858 2240 1050 2128
Q 1242 2016 1728 1946
Q 2342 1862 2636 1644
Q 2931 1427 2931 947
Q 2931 467 2576 201
Q 2221 -64 1594 -64
z
" transform="scale(0.015625)"/>
     <path id="MonaSans-Regular-65" d="M 1798 -58
Q 1062 -58 643 409
Q 224 877 224 1670
Q 224 2202 413 2595
Q 602 2989 954 3206
Q 1306 3424 1779 3424
Q 2298 3424 2650 3193
Q 3002 2963 3171 2547
Q 3341 2131 3309 1581
L 787 1581
Q 794 1011 1066 700
Q 1338 390 1798 390
Q 2157 390 2390 550
Q 2624 710 2714 1005
L 3270 1005
Q 3174 506 2780 224
Q 2387 -58 1798 -58
z
M 2739 1978
Q 2714 2458 2458 2717
Q 2202 2976 1779 2976
Q 1357 2976 1091 2710
Q 826 2445 794 1978
L 2739 1978
z
" transform="scale(0.015625)"/>
     <path id="MonaSans-Regular-63" d="M 1850 -58
Q 1376 -58 1014 156
Q 653 371 457 764
Q 262 1158 262 1677
Q 262 2195 460 2592
Q 659 2989 1024 3206
Q 1389 3424 1875 3424
Q 2470 3424 2864 3107
Q 3258 2790 3334 2259
L 2758 2259
Q 2675 2586 2438 2762
Q 2202 2938 1856 2938
Q 1376 2938 1107 2595
Q 838 2253 838 1677
Q 838 1088 1110 758
Q 1382 429 1850 429
Q 2214 429 2457 621
Q 2701 813 2771 1146
L 3347 1146
Q 3264 589 2861 265
Q 2458 -58 1850 -58
z
" transform="scale(0.015625)"/>
     <path id="MonaSans-Regular-6e" d="M 410 3366
L 954 3366
L 973 2662
L 1005 2662
Q 1152 3027 1453 3225
Q 1754 3424 2125 3424
Q 2662 3424 2969 3078
Q 3277 2733 3277 2003
L 3277 0
L 2714 0
L 2714 1882
Q 2714 2419 2518 2678
Q 2323 2938 1926 2938
Q 1504 2938 1241 2630
Q 979 2323 979 1837
L 979 0
L 410 0
L 410 3366
z
" transform="scale(0.015625)"/>
     <path id="MonaSans-Regular-64" d="M 1626 -58
Q 1222 -58 918 153
Q 614 365 448 758
Q 282 1152 282 1683
Q 282 2221 448 2617
Q 614 3014 918 3222
Q 1222 3430 1626 3430
Q 2035 3430 2332 3225
Q 2630 3021 2746 2682
L 2771 2682
L 2765 4774
L 3334 4774
L 3334 0
L 2797 0
L 2778 691
L 2746 691
Q 2630 352 2329 147
Q 2029 -58 1626 -58
z
M 1811 429
Q 2106 429 2320 576
Q 2534 723 2649 972
Q 2765 1222 2765 1517
L 2765 1850
Q 2765 2150 2653 2400
Q 2541 2650 2326 2800
Q 2112 2950 1824 2950
Q 1370 2950 1117 2617
Q 864 2285 864 1683
Q 864 1094 1113 761
Q 1363 429 1811 429
z
" transform="scale(0.015625)"/>
     <path id="MonaSans-Regular-75" d="M 1549 -58
Q 992 -58 688 288
Q 384 634 384 1286
L 384 3366
L 954 3366
L 954 1427
Q 954 934 1146 678
Q 1338 422 1747 422
Q 2163 422 2425 736
Q 2688 1050 2688 1562
L 2688 3366
L 3251 3366
L 3251 0
L 2714 0
L 2688 717
L 2662 717
Q 2534 352 2236 147
Q 1939 -58 1549 -58
z
" transform="scale(0.015625)"/>
     <path id="MonaSans-Regular-70" d="M 416 3366
L 954 3366
L 973 2669
L 1005 2669
Q 1126 3014 1424 3219
Q 1722 3424 2125 3424
Q 2528 3424 2832 3216
Q 3136 3008 3302 2614
Q 3469 2221 3469 1683
Q 3469 1146 3302 752
Q 3136 358 2832 150
Q 2528 -58 2125 -58
Q 1715 -58 1420 140
Q 1126 339 1005 678
L 979 678
L 986 -1107
L 416 -1107
L 416 3366
z
M 1926 416
Q 2374 416 2630 752
Q 2886 1088 2886 1683
Q 2886 2272 2633 2608
Q 2381 2944 1939 2944
Q 1498 2944 1242 2630
Q 986 2317 986 1862
L 986 1498
Q 986 1043 1242 729
Q 1498 416 1926 416
z
" transform="scale(0.015625)"/>
     <path id="MonaSans-Regular-74" d="M 1446 0
Q 1082 0 902 176
Q 723 352 723 742
L 723 2899
L 83 2899
L 83 3366
L 723 3366
L 723 4352
L 1286 4435
L 1286 3366
L 2042 3366
L 2042 2899
L 1286 2899
L 1286 838
Q 1286 653 1369 569
Q 1453 486 1632 486
L 2048 486
L 2048 0
L 1446 0
z
" transform="scale(0.015625)"/>
     <path id="MonaSans-Regular-6c" d="M 422 4774
L 992 4774
L 992 0
L 422 0
L 422 4774
z
" transform="scale(0.015625)"/>
     <path id="MonaSans-Regular-b7" d="M 608 1376
Q 435 1376 323 1488
Q 211 1600 211 1773
Q 211 1946 323 2058
Q 435 2170 608 2170
Q 787 2170 896 2058
Q 1005 1946 1005 1773
Q 1005 1600 896 1488
Q 787 1376 608 1376
z
" transform="scale(0.015625)"/>
    </defs>
    <use xlink:href="#MonaSans-Regular-53"/>
    <use xlink:href="#MonaSans-Regular-69" x="62.499985"/>
    <use xlink:href="#MonaSans-Regular-78" x="84.199982"/>
    <use xlink:href="#MonaSans-Regular-20" x="138.199966"/>
    <use xlink:href="#MonaSans-Regular-36" x="160.899963"/>
    <use xlink:href="#MonaSans-Regular-30" x="223.09996"/>
    <use xlink:href="#MonaSans-Regular-2d" x="285.399948"/>
    <use xlink:href="#MonaSans-Regular-73" x="322.899933"/>
    <use xlink:href="#MonaSans-Regular-65" x="371.899918"/>
    <use xlink:href="#MonaSans-Regular-63" x="426.799911"/>
    <use xlink:href="#MonaSans-Regular-6f" x="482.199905"/>
    <use xlink:href="#MonaSans-Regular-6e" x="540.19989"/>
    <use xlink:href="#MonaSans-Regular-64" x="597.299881"/>
    <use xlink:href="#MonaSans-Regular-20" x="655.899872"/>
    <use xlink:href="#MonaSans-Regular-72" x="678.599869"/>
    <use xlink:href="#MonaSans-Regular-75" x="712.899857"/>
    <use xlink:href="#MonaSans-Regular-6e" x="770.099854"/>
    <use xlink:href="#MonaSans-Regular-73" x="827.199844"/>
    <use xlink:href="#MonaSans-Regular-20" x="876.199829"/>
    <use xlink:href="#MonaSans-Regular-70" x="898.899826"/>
    <use xlink:href="#MonaSans-Regular-65" x="957.499817"/>
    <use xlink:href="#MonaSans-Regular-72" x="1012.399811"/>
    <use xlink:href="#MonaSans-Regular-20" x="1046.699799"/>
    <use xlink:href="#MonaSans-Regular-74" x="1069.399796"/>
    <use xlink:href="#MonaSans-Regular-6f" x="1103.599792"/>
    <use xlink:href="#MonaSans-Regular-6f" x="1161.599777"/>
    <use xlink:href="#MonaSans-Regular-6c" x="1219.599762"/>
    <use xlink:href="#MonaSans-Regular-20" x="1241.699753"/>
    <use xlink:href="#MonaSans-Regular-b7" x="1264.39975"/>
    <use xlink:href="#MonaSans-Regular-20" x="1283.399734"/>
    <use xlink:href="#MonaSans-Regular-6e" x="1306.099731"/>
    <use xlink:href="#MonaSans-Regular-6f" x="1363.199722"/>
    <use xlink:href="#MonaSans-Regular-20" x="1421.199707"/>
    <use xlink:href="#MonaSans-Regular-72" x="1443.899704"/>
    <use xlink:href="#MonaSans-Regular-61" x="1478.199692"/>
    <use xlink:href="#MonaSans-Regular-74" x="1536.599686"/>
    <use xlink:href="#MonaSans-Regular-65" x="1570.799683"/>
    <use xlink:href="#MonaSans-Regular-20" x="1625.699677"/>
    <use xlink:href="#MonaSans-Regular-63" x="1648.399673"/>
    <use xlink:href="#MonaSans-Regular-61" x="1703.799667"/>
    <use xlink:href="#MonaSans-Regular-70" x="1762.199661"/>
   </g>
  </g>
  <g id="text_15">
   <!-- Median with min–max range -->
   <g style="fill: #576973" transform="translate(24.192 292.572) scale(0.14 -0.14)">
    <defs>
     <path id="MonaSans-Regular-4d" d="M 454 4666
L 1395 4666
L 2342 2022
L 2726 813
L 2758 813
L 3136 2016
L 4083 4666
L 5018 4666
L 5018 0
L 4422 0
L 4422 2362
L 4442 4032
L 4403 4032
L 3898 2502
L 3002 0
L 2470 0
L 1587 2490
L 1069 4026
L 1037 4026
L 1050 2355
L 1050 0
L 454 0
L 454 4666
z
" transform="scale(0.015625)"/>
     <path id="MonaSans-Regular-6d" d="M 410 3366
L 954 3366
L 973 2694
L 998 2694
Q 1139 3046 1433 3235
Q 1728 3424 2086 3424
Q 2470 3424 2736 3229
Q 3002 3034 3117 2643
L 3149 2643
Q 3290 3014 3597 3219
Q 3904 3424 4288 3424
Q 4800 3424 5097 3091
Q 5395 2758 5395 2042
L 5395 0
L 4832 0
L 4832 1926
Q 4832 2445 4653 2691
Q 4474 2938 4090 2938
Q 3686 2938 3436 2640
Q 3187 2342 3187 1875
L 3187 0
L 2618 0
L 2618 1926
Q 2618 2445 2438 2691
Q 2259 2938 1882 2938
Q 1472 2938 1222 2640
Q 973 2342 973 1875
L 973 0
L 410 0
L 410 3366
z
" transform="scale(0.015625)"/>
     <path id="MonaSans-Regular-2013" d="M 282 2195
L 2835 2195
L 2835 1709
L 282 1709
L 282 2195
z
" transform="scale(0.015625)"/>
     <path id="MonaSans-Regular-67" d="M 1843 -1190
Q 1165 -1190 771 -940
Q 378 -691 307 -205
L 909 -205
Q 1030 -749 1856 -749
Q 2323 -749 2534 -531
Q 2746 -314 2746 160
L 2752 781
L 2726 781
Q 2605 448 2304 253
Q 2003 58 1594 58
Q 1197 58 893 259
Q 589 461 422 841
Q 256 1222 256 1741
Q 256 2266 422 2646
Q 589 3027 893 3228
Q 1197 3430 1594 3430
Q 2003 3430 2304 3241
Q 2605 3053 2733 2714
L 2758 2714
L 2771 3366
L 3315 3366
L 3315 230
Q 3315 -512 2944 -851
Q 2573 -1190 1843 -1190
z
M 1786 538
Q 2074 538 2291 682
Q 2509 826 2627 1069
Q 2746 1312 2746 1594
L 2746 1914
Q 2746 2189 2630 2429
Q 2515 2669 2297 2813
Q 2080 2957 1786 2957
Q 1344 2957 1091 2640
Q 838 2323 838 1741
Q 838 1171 1091 854
Q 1344 538 1786 538
z
" transform="scale(0.015625)"/>
    </defs>
    <use xlink:href="#MonaSans-Regular-4d"/>
    <use xlink:href="#MonaSans-Regular-65" x="85.499985"/>
    <use xlink:href="#MonaSans-Regular-64" x="140.399979"/>
    <use xlink:href="#MonaSans-Regular-69" x="198.999969"/>
    <use xlink:href="#MonaSans-Regular-61" x="220.699966"/>
    <use xlink:href="#MonaSans-Regular-6e" x="279.09996"/>
    <use xlink:href="#MonaSans-Regular-20" x="336.199951"/>
    <use xlink:href="#MonaSans-Regular-77" x="358.899948"/>
    <use xlink:href="#MonaSans-Regular-69" x="430.899933"/>
    <use xlink:href="#MonaSans-Regular-74" x="452.59993"/>
    <use xlink:href="#MonaSans-Regular-68" x="486.799927"/>
    <use xlink:href="#MonaSans-Regular-20" x="543.999924"/>
    <use xlink:href="#MonaSans-Regular-6d" x="566.699921"/>
    <use xlink:href="#MonaSans-Regular-69" x="656.899902"/>
    <use xlink:href="#MonaSans-Regular-6e" x="678.599899"/>
    <use xlink:href="#MonaSans-Regular-2013" x="735.69989"/>
    <use xlink:href="#MonaSans-Regular-6d" x="784.299881"/>
    <use xlink:href="#MonaSans-Regular-61" x="874.499863"/>
    <use xlink:href="#MonaSans-Regular-78" x="932.899857"/>
    <use xlink:href="#MonaSans-Regular-20" x="986.899841"/>
    <use xlink:href="#MonaSans-Regular-72" x="1009.599838"/>
    <use xlink:href="#MonaSans-Regular-61" x="1043.899826"/>
    <use xlink:href="#MonaSans-Regular-6e" x="1102.29982"/>
    <use xlink:href="#MonaSans-Regular-67" x="1159.399811"/>
    <use xlink:href="#MonaSans-Regular-65" x="1217.499802"/>
   </g>
  </g>
  <g id="text_16">
   <!-- POSTs/s -->
   <g style="fill: #576973" transform="translate(530.207563 292.572) scale(0.14 -0.14)">
    <defs>
     <path id="MonaSans-Regular-50" d="M 480 4666
L 2362 4666
Q 3117 4666 3536 4282
Q 3955 3898 3955 3206
Q 3955 2528 3529 2144
Q 3104 1760 2355 1760
L 1075 1760
L 1075 0
L 480 0
L 480 4666
z
M 2285 2259
Q 2790 2259 3065 2505
Q 3341 2752 3341 3194
Q 3341 3648 3065 3894
Q 2790 4141 2285 4141
L 1075 4141
L 1075 2259
L 2285 2259
z
" transform="scale(0.015625)"/>
     <path id="MonaSans-Regular-4f" d="M 2528 -58
Q 1869 -58 1379 233
Q 890 525 624 1065
Q 358 1606 358 2330
Q 358 3053 624 3593
Q 890 4134 1379 4425
Q 1869 4717 2528 4717
Q 3194 4717 3686 4425
Q 4179 4134 4444 3596
Q 4710 3059 4710 2330
Q 4710 1606 4441 1065
Q 4173 525 3680 233
Q 3187 -58 2528 -58
z
M 2528 474
Q 3258 474 3674 973
Q 4090 1472 4090 2330
Q 4090 3194 3674 3690
Q 3258 4186 2528 4186
Q 1798 4186 1385 3690
Q 973 3194 973 2330
Q 973 1760 1161 1341
Q 1350 922 1699 698
Q 2048 474 2528 474
z
" transform="scale(0.015625)"/>
     <path id="MonaSans-Regular-54" d="M 1651 4134
L 96 4134
L 96 4666
L 3808 4666
L 3808 4134
L 2246 4134
L 2246 0
L 1651 0
L 1651 4134
z
" transform="scale(0.015625)"/>
     <path id="MonaSans-Regular-2f" d="M 1856 4666
L 2406 4666
L 442 -518
L -115 -518
L 1856 4666
z
" transform="scale(0.015625)"/>
    </defs>
    <use xlink:href="#MonaSans-Regular-50"/>
    <use xlink:href="#MonaSans-Regular-4f" x="64.499985"/>
    <use xlink:href="#MonaSans-Regular-53" x="143.699966"/>
    <use xlink:href="#MonaSans-Regular-54" x="206.199951"/>
    <use xlink:href="#MonaSans-Regular-73" x="267.199936"/>
    <use xlink:href="#MonaSans-Regular-2f" x="316.199921"/>
    <use xlink:href="#MonaSans-Regular-73" x="354.199905"/>
   </g>
  </g>
 </g>
 <defs>
  <clipPath id="pf203c1af53">
   <rect x="114.912" y="77.4" width="393.12" height="160.992"/>
  </clipPath>
 </defs>
</svg>
